<?xml version="1.0" standalone="no"?>
<!DOCTYPE svg PUBLIC "-//W3C//DTD SVG 20010904//EN"
 "http://www.w3.org/TR/2001/REC-SVG-20010904/DTD/svg10.dtd">
<svg version="1.0" xmlns="http://www.w3.org/2000/svg"
 width="100.000000pt" height="100.000000pt" viewBox="0 0 100.000000 100.000000"
 preserveAspectRatio="xMidYMid meet">
<metadata>
Created by potrace 1.11, written by Peter Selinger 2001-2013
</metadata>
<g transform="translate(0.000000,100.000000) scale(0.100000,-0.100000)"
fill="#000000" stroke="none">
<path d="M14 975 c-10 -25 3 -30 73 -29 88 2 83 1 83 24 0 18 -7 20 -75 20
-57 0 -77 -4 -81 -15z"/>
<path d="M274 980 c-30 -12 -74 -68 -74 -93 0 -42 -15 -51 -84 -52 -70 -1 -82
-6 -73 -30 5 -11 22 -15 72 -15 l65 0 -5 -27 c-14 -81 -15 -82 -53 -85 -29 -2
-37 -7 -37 -23 0 -16 7 -20 33 -20 17 0 32 -1 32 -3 0 -2 -11 -56 -24 -120
-37 -177 -38 -190 -21 -221 8 -16 28 -33 44 -39 17 -6 146 -10 314 -10 365 0
359 -3 397 183 11 55 23 116 27 135 3 19 6 40 8 45 2 11 16 80 20 105 2 8 10
49 19 90 23 106 21 132 -10 164 l-27 26 -301 -1 c-165 0 -310 -4 -322 -9z"/>
<path d="M152 196 c-63 -34 -81 -119 -35 -162 24 -22 35 -25 71 -21 49 5 79
28 99 75 11 27 11 37 -1 66 -22 54 -81 72 -134 42z"/>
<path d="M618 194 c-58 -31 -76 -117 -33 -159 37 -38 94 -34 139 9 30 28 36
40 36 75 0 77 -70 114 -142 75z"/>
</g>
</svg>
